# xmcd CD database file
#
# Track frame offsets:
#	183
#	15653
#	32663
#	52335
#	71873
#	97593
#	117123
#	137290
#	154078
#	172548
#	192713
#
# Disc length: 2753 seconds
#
# Revision: 0
# Processed by: cddbd v1.5.1PL0 Copyright (c) Steve Scherf et al.
# Submitted via: CDex 1.51
#
DISCID=880abf0b
DTITLE=Regulators, The - The Regulators
DYEAR=1992
DGENRE=Country
TTITLE0=Trouble In Dallas
TTITLE1=Outskirts
TTITLE2=Let It Ride
TTITLE3=Good To Go
TTITLE4=Last Chance
TTITLE5=Lay Down Your Money
TTITLE6=Texas Lawman
TTITLE7=Need For Speed
TTITLE8=Boys Are Goin' Out
TTITLE9=Whiskey Fever
TTITLE10=Crazy Circles
EXTD=YEAR: 1992
EXTT0=
EXTT1=
EXTT2=
EXTT3=
EXTT4=
EXTT5=
EXTT6=
EXTT7=
EXTT8=
EXTT9=
EXTT10=
PLAYORDER=
